<svg width="40" height="40" viewBox="0 0 40 40" fill="none" xmlns="http://www.w3.org/2000/svg">
  <defs>
    <linearGradient id="avatarGradient" x1="0%" y1="0%" x2="100%" y2="100%">
      <stop offset="0%" style="stop-color:#4F46E5;stop-opacity:1" />
      <stop offset="100%" style="stop-color:#7C3AED;stop-opacity:1" />
    </linearGradient>
  </defs>
  
  <!-- Background circle -->
  <circle cx="20" cy="20" r="20" fill="url(#avatarGradient)"/>
  
  <!-- Professional silhouette -->
  <g transform="translate(8, 6)">
    <!-- Head -->
    <ellipse cx="12" cy="8" rx="6" ry="7" fill="#FFFFFF" opacity="0.9"/>
    
    <!-- Suit jacket -->
    <path d="M4 28 L4 22 Q4 20 6 18 L8 16 Q10 15 12 15 Q14 15 16 16 L18 18 Q20 20 20 22 L20 28 Z" fill="#FFFFFF" opacity="0.9"/>
    
    <!-- Shirt -->
    <path d="M9 16 L9 28 L15 28 L15 16 Q14 15.5 12 15.5 Q10 15.5 9 16 Z" fill="#FFFFFF" opacity="0.7"/>
    
    <!-- Tie -->
    <path d="M11.5 16 L11.5 25 L12 26 L12.5 25 L12.5 16 Q12.25 15.8 12 15.8 Q11.75 15.8 11.5 16 Z" fill="#FFFFFF" opacity="0.5"/>
    
    <!-- Collar -->
    <path d="M9 16 L10.5 17.5 L12 16.5 L13.5 17.5 L15 16" stroke="#FFFFFF" stroke-width="0.5" fill="none" opacity="0.6"/>
  </g>
</svg>