<svg xmlns="http://www.w3.org/2000/svg" viewBox="0 0 200 200" fill="none">
  <!-- Machine Base -->
  <rect x="20" y="160" width="160" height="20" fill="#4A5568" rx="4"/>
  
  <!-- Extruder Body -->
  <rect x="30" y="120" width="80" height="40" fill="#2D3748" rx="6"/>
  
  <!-- Extruder Screw -->
  <rect x="35" y="130" width="70" height="8" fill="#4A5568" rx="4"/>
  <rect x="35" y="142" width="70" height="8" fill="#4A5568" rx="4"/>
  
  <!-- Die Head -->
  <rect x="110" y="125" width="15" height="30" fill="#E53E3E" rx="3"/>
  
  <!-- Film Bubble -->
  <ellipse cx="132" cy="100" rx="25" ry="45" fill="#E6FFFA" stroke="#38B2AC" stroke-width="2" opacity="0.7"/>
  
  <!-- Air Ring -->
  <circle cx="132" cy="140" r="8" fill="#4A5568"/>
  <circle cx="132" cy="140" r="5" fill="#E2E8F0"/>
  
  <!-- Nip Rolls -->
  <circle cx="132" cy="60" r="8" fill="#2D3748"/>
  <circle cx="148" cy="60" r="8" fill="#2D3748"/>
  
  <!-- Film Roll -->
  <circle cx="140" cy="35" r="20" fill="#F7FAFC" stroke="#4A5568" stroke-width="2"/>
  <circle cx="140" cy="35" r="15" fill="#E2E8F0"/>
  <circle cx="140" cy="35" r="3" fill="#4A5568"/>
  
  <!-- Control Panel -->
  <rect x="40" y="90" width="50" height="25" fill="#2D3748" rx="4"/>
  <circle cx="50" cy="100" r="3" fill="#48BB78"/>
  <circle cx="60" cy="100" r="3" fill="#F56565"/>
  <circle cx="70" cy="100" r="3" fill="#ECC94B"/>
  <rect x="45" y="105" width="35" height="6" fill="#4A5568" rx="2"/>
  
  <!-- Temperature Display -->
  <rect x="50" y="75" width="30" height="12" fill="#1A202C" rx="2"/>
  <text x="65" y="83" text-anchor="middle" fill="#48BB78" font-family="Arial" font-size="6">250°C</text>
  
  <!-- Air Flow Lines -->
  <path d="M 125 140 Q 130 135 135 140" stroke="#38B2AC" stroke-width="1" fill="none" opacity="0.6"/>
  <path d="M 139 140 Q 134 135 139 140" stroke="#38B2AC" stroke-width="1" fill="none" opacity="0.6"/>
  
  <!-- Film Flow -->
  <path d="M 132 125 L 132 65" stroke="#38B2AC" stroke-width="2" fill="none" opacity="0.8"/>
  
  <!-- Support Structure -->
  <rect x="120" y="160" width="4" height="80" fill="#4A5568"/>
  <rect x="150" y="160" width="4" height="80" fill="#4A5568"/>
</svg>